<svg xmlns="http://www.w3.org/2000/svg" xml:space="preserve" id="svg8" x="0" y="0" viewBox="0 0 805.419 202"><style>.st0{fill-rule:evenodd;clip-rule:evenodd}.st0,.st1{fill:#211915}.st2,.st3{fill:#da291c}.st3{fill-rule:evenodd;clip-rule:evenodd}.st4{fill:#fff}</style><g id="layer1"><path d="M531.18 99.215c0 10.051 6.434 16.67 16.364 16.67 9.986 0 16.42-6.619 16.42-16.67 0-10.112-6.434-16.728-16.42-16.728-9.929 0-16.364 6.616-16.364 16.728m8.7 0c0-5.085 1.778-10.172 7.665-10.172 5.943 0 7.718 5.087 7.718 10.172 0 5.027-1.776 10.114-7.718 10.114-5.887 0-7.665-5.088-7.665-10.114m28.027 15.812h8.273v-4.046h.123c1.899 3.493 5.759 4.903 10.417 4.903 6.313 0 13.113-5.087 13.113-16.73 0-11.582-6.8-16.667-13.113-16.667-3.922 0-7.844 1.468-9.99 4.715h-.121V71.276h-8.702zm23.227-15.812c0 5.271-2.272 10.114-7.418 10.114-5.15 0-7.413-4.843-7.413-10.114 0-5.332 2.263-10.172 7.413-10.172 5.146 0 7.418 4.84 7.418 10.172m12.761 15.812h8.704V83.345h-8.704zm8.704-43.752h-8.704v7.166h8.704zM647.84 101.3c.611-9.746-4.593-18.814-15.379-18.814-9.625 0-16.18 7.234-16.18 16.728 0 9.806 6.19 16.67 16.18 16.67 7.166 0 12.375-3.187 14.826-10.665h-7.66c-.552 1.96-3.37 4.108-6.863 4.108-4.843 0-7.537-2.514-7.779-8.028zm-22.855-5.516c.119-2.454 1.715-6.742 7.227-6.742 4.227 0 6.131 2.33 6.926 6.742z" class="st0"/><path d="M652.397 115.027h8.702v-14.279c0-5.577 2.207-10.17 8.581-10.17 1.042 0 2.33.12 3.125.305v-8.09a6.5 6.5 0 0 0-1.902-.306c-4.227 0-8.518 2.757-10.109 6.74h-.123v-5.882h-8.273zm24.372 0h8.702V98.423c0-6.437 2.023-9.074 6.744-9.074 4.041 0 5.574 2.573 5.574 7.786v17.893h8.704V95.541c0-7.842-2.333-13.053-11.584-13.053-3.677 0-7.476 1.715-9.683 5.271h-.186v-4.414h-8.271z" class="st1"/><path d="M710.932 99.215c0 10.051 6.432 16.67 16.364 16.67 9.986 0 16.42-6.619 16.42-16.67 0-10.112-6.434-16.728-16.42-16.728-9.932 0-16.364 6.616-16.364 16.728m8.7 0c0-5.085 1.778-10.172 7.665-10.172 5.94 0 7.718 5.087 7.718 10.172 0 5.027-1.778 10.114-7.718 10.114-5.887 0-7.665-5.088-7.665-10.114" class="st0"/><path d="M520.882 115.027h6.129V91.373h-18.385v7.171h9.683c-.552 6.064-4.167 9.434-10.417 9.434-8.641 0-11.89-7.353-11.89-14.647 0-7.66 3.249-15.008 11.89-15.008 4.535 0 8.15 2.508 9.25 7.348h9.196c-1.042-9.928-9.497-15.439-18.445-15.439-13.544 0-21.512 10.11-21.512 23.1 0 12.625 7.968 22.737 21.512 22.737 4.227 0 8.639-1.659 12.011-6.003zm56.93 68.64h9.012v-29.294h.121l18.203 29.294h9.618v-43.756h-9.007v29.354h-.122l-18.261-29.354h-9.564z" class="st1"/><path d="M639.43 171.407c0 1.902-.247 7.294-7.047 7.294-2.818 0-5.33-.799-5.33-4.043 0-3.19 2.449-4.108 5.148-4.658 2.694-.489 5.761-.548 7.229-1.836zm-11.401-9.68c.31-3.434 2.454-4.78 5.763-4.78 3.065 0 5.637.551 5.637 4.287 0 3.556-4.962 3.372-10.296 4.167-5.393.734-10.781 2.45-10.781 9.622 0 6.497 4.777 9.501 10.781 9.501 3.862 0 7.907-1.044 10.664-3.924.061 1.044.305 2.083.613 3.067h8.823c-.795-1.289-1.102-4.169-1.102-7.049v-16.483c0-7.602-7.597-9.007-13.91-9.007-7.108 0-14.4 2.447-14.891 10.6z" class="st0"/><path d="M681.188 151.985h-8.639l-6.681 21.628h-.124l-6.679-21.628h-9.131l10.846 31.682h9.683z" class="st1"/><path d="M702.381 171.407c0 1.902-.247 7.294-7.049 7.294-2.818 0-5.33-.799-5.33-4.043 0-3.19 2.452-4.108 5.148-4.658 2.696-.489 5.761-.548 7.231-1.836zm-11.4-9.68c.305-3.434 2.452-4.78 5.765-4.78 3.058 0 5.635.551 5.635 4.287 0 3.556-4.964 3.372-10.296 4.167-5.393.734-10.785 2.45-10.785 9.622 0 6.497 4.782 9.501 10.785 9.501 3.862 0 7.905-1.044 10.664-3.924.061 1.044.305 2.083.611 3.067h8.825c-.797-1.289-1.102-4.169-1.102-7.049v-16.483c0-7.602-7.597-9.007-13.91-9.007-7.108 0-14.402 2.447-14.891 10.6z" class="st0"/><path d="M716.491 183.667h8.704v-14.28c0-5.58 2.205-10.173 8.576-10.173 1.042 0 2.328.123 3.127.31v-8.096a6.6 6.6 0 0 0-1.902-.3c-4.227 0-8.518 2.751-10.112 6.734h-.121v-5.878h-8.273v31.683z" class="st1"/><path d="M783.809 171.407c0 1.902-.247 7.294-7.049 7.294-2.82 0-5.33-.799-5.33-4.043 0-3.19 2.449-4.108 5.146-4.658 2.696-.489 5.761-.548 7.234-1.836zm-11.4-9.68c.31-3.434 2.452-4.78 5.761-4.78 3.067 0 5.64.551 5.64 4.287 0 3.556-4.966 3.372-10.296 4.167-5.393.734-10.787 2.45-10.787 9.622 0 6.497 4.782 9.501 10.787 9.501 3.859 0 7.905-1.044 10.662-3.924.061 1.044.305 2.083.613 3.067h8.823c-.795-1.289-1.1-4.169-1.1-7.049v-16.483c0-7.602-7.599-9.007-13.91-9.007-7.11 0-14.4 2.447-14.894 10.6z" class="st0"/><path d="M740.955 183.667h8.706v-14.28c0-5.58 2.205-10.173 8.576-10.173 1.042 0 2.328.123 3.125.31v-8.096a6.6 6.6 0 0 0-1.899-.3c-4.23 0-8.518 2.751-10.112 6.734h-.121v-5.878h-8.275z" class="st1"/><path d="M510.007 183.667h8.271v-43.756h-8.7v15.931h-.119.058c-2.023-3.125-5.698-4.715-9.434-4.715-9.317 0-14.036 7.9-14.036 16.423 0 8.758 4.656 16.975 14.216 16.975 4.046 0 7.599-1.475 9.622-4.9h.121v4.042zm-.121-15.936c0 5.211-1.715 10.237-7.476 10.237-5.393 0-7.66-5.213-7.66-10.175 0-5.21 1.96-10.116 7.66-10.116 5.64.001 7.476 4.906 7.476 10.054m44.025 2.205c.613-9.743-4.598-18.809-15.381-18.809-9.62 0-16.178 7.23-16.178 16.723 0 9.806 6.19 16.674 16.178 16.674 7.168 0 12.379-3.19 14.833-10.664h-7.665c-.55 1.962-3.368 4.108-6.863 4.108-4.84 0-7.537-2.514-7.779-8.033zm-22.854-5.512c.121-2.454 1.711-6.746 7.229-6.746 4.227 0 6.129 2.333 6.924 6.746z" class="st0"/><path d="M11.613 115.256h9.012V85.96h.123l18.199 29.296h9.624V71.5h-9.009v29.351h-.126l-18.261-29.35h-9.562z" class="st1"/><path d="M73.424 103c0 1.902-.245 7.294-7.052 7.294-2.815 0-5.33-.799-5.33-4.046 0-3.188 2.452-4.106 5.15-4.658 2.696-.492 5.761-.552 7.231-1.84zm-11.398-9.683c.305-3.435 2.449-4.782 5.761-4.782 3.062 0 5.637.55 5.637 4.293 0 3.552-4.964 3.365-10.296 4.162-5.395.736-10.787 2.454-10.787 9.627 0 6.495 4.782 9.501 10.787 9.501 3.859 0 7.905-1.044 10.664-3.929.061 1.044.308 2.088.613 3.067h8.825c-.801-1.286-1.102-4.167-1.102-7.049V91.724c0-7.599-7.602-9.012-13.91-9.012-7.112 0-14.406 2.456-14.896 10.606h8.704" class="st0"/><path d="M90.084 115.256h8.704V89.393h6.006v-5.819h-6.006V81.67c0-2.63.981-3.615 3.307-3.615 1.107 0 2.149.058 3.192.184V71.74c-1.473-.06-3.067-.24-4.6-.24-7.108 0-10.603 4.041-10.603 9.62v2.454H84.88v5.82h5.204z" class="st1"/><path d="M128.443 103c0 1.902-.242 7.294-7.049 7.294-2.818 0-5.33-.799-5.33-4.046 0-3.188 2.449-4.106 5.148-4.658 2.696-.492 5.759-.552 7.231-1.84zm-11.4-9.683c.305-3.435 2.452-4.782 5.761-4.782 3.067 0 5.64.55 5.64 4.293 0 3.552-4.966 3.365-10.298 4.162-5.393.736-10.785 2.454-10.785 9.627 0 6.495 4.78 9.501 10.785 9.501 3.861 0 7.907-1.044 10.666-3.929.061 1.044.305 2.088.611 3.067h8.825c-.793-1.286-1.102-4.167-1.102-7.049V91.724c0-7.599-7.597-9.012-13.91-9.012-7.108 0-14.404 2.456-14.894 10.606h8.701" class="st0"/><path d="M142.695 115.256h8.702v-14.279c0-5.577 2.207-10.177 8.581-10.177 1.042 0 2.33.126 3.13.308v-8.087a6.5 6.5 0 0 0-1.904-.31c-4.23 0-8.518 2.757-10.112 6.744h-.126v-5.882h-8.271zm24.327 0h8.704v-14.279c0-5.577 2.207-10.177 8.581-10.177 1.039 0 2.328.126 3.125.308v-8.087a6.4 6.4 0 0 0-1.899-.31c-4.227 0-8.515 2.757-10.112 6.744h-.123v-5.882h-8.275z" class="st1"/><path d="M189.165 99.444c0 10.051 6.437 16.674 16.364 16.674 9.99 0 16.425-6.623 16.425-16.674 0-10.114-6.434-16.732-16.425-16.732-9.927 0-16.364 6.618-16.364 16.732m8.704 0c0-5.087 1.778-10.172 7.66-10.172 5.945 0 7.721 5.085 7.721 10.172 0 5.027-1.776 10.112-7.721 10.112-5.882 0-7.66-5.086-7.66-10.112M245.63 103c0 1.902-.242 7.294-7.049 7.294-2.818 0-5.33-.799-5.33-4.046 0-3.188 2.452-4.106 5.148-4.658 2.696-.492 5.761-.552 7.231-1.84zm-11.396-9.683c.301-3.435 2.449-4.782 5.761-4.782 3.062 0 5.635.55 5.635 4.293 0 3.552-4.964 3.365-10.296 4.162-5.393.736-10.785 2.454-10.785 9.627 0 6.495 4.782 9.501 10.785 9.501 3.861 0 7.907-1.044 10.664-3.929.063 1.044.31 2.088.611 3.067h8.828c-.795-1.286-1.1-4.167-1.1-7.049V91.724c0-7.599-7.602-9.012-13.915-9.012-7.108 0-14.402 2.456-14.894 10.606h8.706" class="st0"/><path d="M259.936 115.256h8.704V104.35l3.372-3.25 8.699 14.157h10.543l-13.297-20.04 11.95-11.643h-10.298L268.64 94.97V71.5h-8.704z" class="st1"/><path d="M290.194 99.444c0 10.051 6.439 16.674 16.364 16.674 9.988 0 16.425-6.623 16.425-16.674 0-10.114-6.437-16.732-16.425-16.732-9.925 0-16.364 6.618-16.364 16.732m8.704 0c0-5.087 1.778-10.172 7.66-10.172 5.947 0 7.721 5.085 7.721 10.172 0 5.027-1.774 10.112-7.721 10.112-5.881 0-7.66-5.086-7.66-10.112" class="st0"/><path d="M79.409 183.788h6.129v-23.663H67.153v7.175h9.685c-.555 6.068-4.169 9.434-10.422 9.434-8.639 0-11.89-7.353-11.89-14.647 0-7.66 3.251-15.013 11.89-15.013 4.535 0 8.15 2.512 9.254 7.353h9.196c-1.044-9.928-9.501-15.444-18.45-15.444-13.542 0-21.512 10.114-21.512 23.104 0 12.626 7.97 22.738 21.512 22.738 4.23 0 8.643-1.655 12.013-6.003z" class="st1"/><path d="M89.707 167.972c0 10.051 6.437 16.674 16.364 16.674 9.993 0 16.427-6.623 16.427-16.674 0-10.109-6.434-16.728-16.427-16.728-9.927 0-16.364 6.618-16.364 16.728m8.704 0c0-5.085 1.778-10.172 7.66-10.172 5.943 0 7.721 5.087 7.721 10.172 0 5.027-1.778 10.114-7.721 10.114-5.882 0-7.66-5.088-7.66-10.114m28.027 15.816h8.277v-4.05h.119c1.899 3.498 5.761 4.908 10.419 4.908 6.313 0 13.116-5.092 13.116-16.735 0-11.582-6.802-16.667-13.116-16.667-3.92 0-7.844 1.468-9.988 4.72h-.123v-15.936h-8.704zm23.23-15.816c0 5.271-2.268 10.114-7.418 10.114-5.148 0-7.415-4.843-7.415-10.114 0-5.327 2.268-10.172 7.415-10.172 5.15 0 7.418 4.844 7.418 10.172m163.042 3.556c0 1.902-.245 7.294-7.047 7.294-2.82 0-5.334-.799-5.334-4.048 0-3.186 2.454-4.104 5.15-4.656 2.696-.492 5.761-.55 7.231-1.839zm-11.398-9.683c.305-3.435 2.452-4.782 5.761-4.782 3.062 0 5.637.55 5.637 4.293 0 3.556-4.964 3.368-10.296 4.167-5.393.734-10.785 2.45-10.785 9.622 0 6.497 4.78 9.501 10.785 9.501 3.864 0 7.905-1.044 10.664-3.924.061 1.04.308 2.083.613 3.067h8.825c-.797-1.289-1.102-4.169-1.102-7.054v-16.483c0-7.597-7.597-9.007-13.91-9.007-7.112 0-14.404 2.452-14.896 10.601zm-107.65 8.211c.608-9.746-4.602-18.814-15.385-18.814-9.62 0-16.18 7.23-16.18 16.728 0 9.806 6.192 16.674 16.18 16.674 7.168 0 12.379-3.188 14.829-10.664h-7.66c-.55 1.955-3.368 4.104-6.863 4.104-4.84 0-7.539-2.51-7.784-8.028zm-22.864-5.518c.126-2.452 1.717-6.74 7.234-6.74 4.227 0 6.124 2.326 6.924 6.74z" class="st0"/><path d="M198.217 183.788h8.704v-14.283c0-5.577 2.205-10.17 8.578-10.17 1.039 0 2.328.12 3.127.305v-8.09a6.4 6.4 0 0 0-1.899-.306c-4.23 0-8.522 2.757-10.114 6.74h-.121v-5.882h-8.275zm24.375 0h8.704V167.18c0-6.44 2.023-9.074 6.74-9.074 4.043 0 5.579 2.573 5.579 7.786v17.898h8.702v-19.494c0-7.84-2.33-13.05-11.584-13.05-3.677 0-7.476 1.715-9.681 5.271h-.186v-4.414h-8.273zm64.913-31.687h-8.7v16.61c0 6.433-2.023 9.067-6.742 9.067-4.046 0-5.577-2.573-5.577-7.779v-17.898h-8.702v19.487c0 7.844 2.328 13.057 11.584 13.057 3.675 0 7.476-1.72 9.681-5.27h.184v4.413h8.271z" class="st1"/><path d="m404.903 12.695.002-5.027a5.836 5.836 0 0 1 5.09 5.027zm0 1.475h5.1a5.835 5.835 0 0 1-5.098 5.09z" class="st2"/><path d="M403.48 19.26a5.84 5.84 0 0 1-5.069-5.09h5.069zm0-6.565h-5.06a5.84 5.84 0 0 1 5.06-5.027z" class="st3"/><path d="M435.766 68.601c-10.127-2.9-20.753-4.528-31.801-4.528a113.4 113.4 0 0 0-31.238 4.391l-2.339-8.363h-.072c10.698-3.112 21.959-4.746 33.649-4.746 11.899 0 23.371 1.704 34.21 4.887zm-36.054-15.513c1.417-.07 2.764 0 4.108 0 1.63 0 3.26 0 4.887.074V21.148c-1.417-.285-2.975-.5-4.533-.5q-2.338-.002-4.463.428v32.012zm-3.753.216c-3.538.285-7.081.64-10.556 1.134-2.122-3.4-3.327-7.366-3.327-11.69 0-10.056 6.726-18.555 15.935-21.245v9.348c-4.319 2.193-7.222 6.728-7.222 11.897a13.32 13.32 0 0 0 5.17 10.556" class="st2"/><path d="M383.492 30.64c-1.771-.78-3.68-1.275-5.736-1.275-7.368 0-13.318 6.021-13.318 13.383 0 6.944 5.312 12.682 12.182 13.32-4.389.923-8.711 2.193-12.958 3.612-4.89-4.039-7.934-10.13-7.934-16.932 0-12.182 9.845-22.1 22.028-22.1 4.25 0 8.215 1.208 11.616 3.334a22.8 22.8 0 0 0-5.88 6.658m29.042 22.664c3.54.285 7.081.64 10.554 1.134 2.124-3.4 3.399-7.366 3.399-11.69 0-10.056-6.728-18.555-16.007-21.245v9.348c4.319 2.193 7.294 6.728 7.294 11.897 0 4.323-2.054 8.151-5.24 10.556" class="st2"/><path d="M425.073 30.64c1.697-.78 3.61-1.275 5.667-1.275 7.364 0 13.385 6.021 13.385 13.383 0 6.944-5.384 12.682-12.184 13.32h-.07c4.391.923 8.783 2.193 12.963 3.612h.072c4.813-4.039 7.932-10.13 7.932-16.932 0-12.182-9.916-22.1-22.098-22.1a21.8 21.8 0 0 0-11.618 3.334c2.408 1.838 4.392 4.105 5.951 6.658" class="st2"/><path d="m404.093 192.705-41.715-7.858c-6.659-.997-11.755-6.448-11.755-13.457V71.102h107.013v100.29c0 7.008-5.099 12.46-11.755 13.456z" class="st3"/><path d="m399.425 127.271 4.571-4.569 4.573 4.57-4.573 4.575z" class="st4"/><path d="M453.158 127.228c0-4.64-3.062-8.574-7.274-9.885v-21.83c4.212-1.308 7.274-5.239 7.274-9.88 0-5.712-4.634-10.35-10.345-10.35-4.73 0-8.727 3.176-9.95 7.522h-18.906c-1.233-4.346-5.229-7.523-9.957-7.523a10.34 10.34 0 0 0-9.948 7.523H375.07c-1.23-4.346-5.226-7.523-9.959-7.523-5.711 0-10.345 4.638-10.345 10.35 0 4.652 3.062 8.583 7.29 9.89v21.816c-4.227 1.307-7.29 5.24-7.29 9.89s3.062 8.582 7.29 9.888v22.001c-4.227 1.31-7.29 5.235-7.29 9.892 0 5.711 4.634 10.35 10.345 10.35 4.203 0 7.82-2.51 9.44-6.118l19.112 3.72c.162 5.57 4.724 10.035 10.336 10.035 5.613 0 10.179-4.474 10.341-10.044l19.034-3.702c1.621 3.6 5.235 6.11 9.438 6.11 5.711 0 10.345-4.639 10.345-10.35 0-4.644-3.062-8.575-7.274-9.886v-22.017c4.213-1.305 7.275-5.236 7.275-9.879m-10.192-46.393a4.813 4.813 0 1 1-.005 9.627 4.813 4.813 0 0 1 .005-9.627m-5.155 13.863c.732.402 1.52.725 2.344.945v21.577a10.37 10.37 0 0 0-7.292 7.182h-18.481a10.6 10.6 0 0 0-1.34-3.139zm-23.878-6.163h18.948c.211.741.507 1.441.876 2.106l-24.942 26.743a11 11 0 0 0-1.978-.786V95.59a10.38 10.38 0 0 0 7.096-7.054m-4.897 38.711a5.05 5.05 0 0 1-5.051 5.047 5.05 5.05 0 0 1-5.054-5.047 5.053 5.053 0 1 1 10.105 0m-5.051-46.41a4.82 4.82 0 0 1 4.816 4.815 4.817 4.817 0 0 1-4.816 4.811 4.813 4.813 0 0 1 0-9.627m-28.939 7.7h19.022a10.35 10.35 0 0 0 7.04 7.028v20.984c-.835.222-1.63.543-2.371.943l-24.754-26.536c.45-.75.805-1.562 1.063-2.42m19.543 32.92a10.8 10.8 0 0 0-1.217 2.945H375.07a10.37 10.37 0 0 0-7.283-7.173V95.633a10.2 10.2 0 0 0 2.003-.772zM360.191 85.65a4.813 4.813 0 1 1 9.627 0 4.814 4.814 0 0 1-9.627 0m0 41.596a4.813 4.813 0 1 1 9.627 0 4.813 4.813 0 0 1-9.627 0m4.817 46.644a4.814 4.814 0 0 1-4.818-4.81 4.817 4.817 0 0 1 4.818-4.814 4.813 4.813 0 0 1 0 9.624m4.45-14.268a10.4 10.4 0 0 0-1.67-.61V137.23a10.39 10.39 0 0 0 7.258-7.099h18.457a10.6 10.6 0 0 0 1.118 2.503zm25.621 11.782-19.718-3.83a10.4 10.4 0 0 0-1.569-4.203l24.991-26.805c.727.4 1.509.707 2.326.925v29.226a10.34 10.34 0 0 0-6.03 4.687m8.906 10.244a4.81 4.81 0 1 1 0-9.62 4.816 4.816 0 0 1 4.816 4.81 4.814 4.814 0 0 1-4.816 4.81m28.581-14.074-19.653 3.821a10.37 10.37 0 0 0-6.077-4.697v-29.257q1.03-.293 1.964-.772l25.158 26.977a10.2 10.2 0 0 0-1.392 3.928m-19.534-34.767c.519-.828.932-1.715 1.224-2.676h18.625a10.4 10.4 0 0 0 7.274 7.108v21.764a9.8 9.8 0 0 0-1.985.763zm34.742 36.271a4.813 4.813 0 1 1-9.626.006 4.813 4.813 0 0 1 9.626-.006m-4.808-37.02a4.814 4.814 0 1 1-.004-9.628 4.814 4.814 0 0 1 .004 9.628" class="st4"/></g></svg>